<svg width="406" height="345" viewBox="0 0 406 345" fill="none" xmlns="http://www.w3.org/2000/svg">
<path d="M21.4007 202.902C21.8411 204.111 22.4806 205.19 23.2686 206.116C23.3843 206.414 23.5047 206.723 23.6305 207.045C24.7975 210.03 26.5529 214.403 29.627 218.161C30.6204 219.375 30.9675 220.142 31.7246 221.816C32.1687 222.798 32.7537 224.091 33.6928 225.97C35.4089 229.402 37.7325 232.144 39.3397 234.009C39.5778 234.285 39.8015 234.543 40.0122 234.787C41.4561 236.456 42.2913 237.422 42.9658 238.48C50.3309 250.03 58.1457 260.74 66.219 271.504C80.0174 289.902 98.7518 308.668 118.818 321.243C131.493 329.186 146.343 331.064 159.658 331.507C165.503 331.701 171.408 331.62 176.918 331.544C177.742 331.532 178.558 331.521 179.364 331.511C185.696 331.431 191.419 331.415 196.63 331.808C199.327 332.011 202.145 332.253 205.057 332.504C221.901 333.954 241.89 335.675 259.925 331.576C266.222 330.145 271.604 327.379 275.813 325.191L276.244 324.967C280.562 322.722 283.693 321.095 287.071 320.129C288.533 319.712 290.101 319.299 291.749 318.864C300.582 316.536 311.714 313.601 321.042 306.173C330.321 298.785 337.413 289.401 343.588 281.23C344.568 279.933 345.525 278.666 346.464 277.443C348.484 274.813 350.679 272.077 352.953 269.243C359.361 261.257 366.391 252.494 371.861 243.147C380.314 228.702 384.23 213.198 387.273 198.555C393.266 169.715 399.483 139.107 391.482 107.103C383.817 76.4422 368.786 46.6216 341.422 26.7207L341.173 26.5395C330.303 18.6332 315.109 7.58176 295.856 11.2145C272.846 15.556 249.523 16.7805 225.361 18.0492C223.846 18.1287 222.328 18.2084 220.807 18.289C195.28 19.6423 168.876 21.2639 142.623 27.2206C119.467 32.4743 101.561 40.0908 81.9737 53.5289C78.8897 55.6446 75.7561 57.4537 72.2284 59.4903C70.3515 60.5739 68.3631 61.7219 66.2114 63.0146C60.4934 66.45 54.1372 70.6467 48.8837 76.2942C35.7527 90.41 22.4268 110.289 15.4116 128.792C6.19068 153.112 11.5354 174.649 18.5399 194.882C18.7231 196.3 19.1998 197.701 19.9882 198.992C20.4544 200.296 20.9265 201.6 21.4007 202.902Z" fill="white" stroke="black" stroke-width="21" stroke-linecap="round"/>
<path d="M130.371 179.545C138.134 180.889 145.711 182.371 152.927 179.51C159.465 175.985 165.27 170.759 172.655 168.122C180.354 165.372 187.296 160.356 193.876 155.548C201.136 150.242 209.129 146.1 216.446 140.832C224.753 134.85 234.336 128.832 243.497 124.251C245.307 123.347 261.744 115.316 261.744 118.341C261.744 122.079 256.52 126.731 253.731 128.694C247.118 133.348 240.607 138.145 233.74 142.418C217.585 152.47 202.89 166.128 189.473 179.545L174.281 194.737C170.78 198.238 168.526 205.131 167.101 209.81L167.068 209.919C164.155 219.491 161.157 229.341 162.659 239.52C163.84 247.525 167.246 248.99 174.083 250.943C187.329 254.728 193.947 239.664 203.158 233.332C206.341 231.143 209.478 228.972 212.636 226.785L213.034 226.509L213.095 226.467C215.795 224.598 216.214 224.307 218.191 227.382C222.993 234.852 230.847 243.331 238.539 247.889C246.891 252.838 258.367 251.243 266.742 247.056C277.414 241.72 285.361 231.036 288.558 219.37C294.329 198.303 298.363 177.281 302.084 155.786C303.973 144.871 306.178 133.601 307.28 122.585C308.005 115.333 307.487 107.862 308.708 100.69C309.15 98.0904 308.152 95.8518 308.152 93.3122C308.152 91.6945 308.906 89.9035 309.223 88.3144C309.828 85.29 310.308 83.2241 309.541 80.5399C308.854 78.136 302.741 76.2267 300.616 76.613C293.222 77.9574 286.702 80.8892 279.434 82.9992C272.111 85.1253 264.389 86.5945 257.46 89.782C247.042 94.574 235.166 96.2961 224.339 100.095C206.85 106.232 189.016 110.946 171.623 117.27C166.74 119.046 161.771 120.752 156.788 122.228C152.48 123.505 148.026 123.877 143.937 125.838C137.486 128.931 131.347 132.422 124.818 135.278C114.644 139.729 105.511 147.773 98.599 156.222C95.0901 160.51 97.6706 169.417 103.28 170.819C107.503 171.875 112.085 174.084 116.092 175.817C120.245 177.613 125.888 178.769 130.371 179.545Z" fill="black"/>
<path d="M156.074 177.959C147.928 182.808 139.272 181.086 130.371 179.545C125.888 178.769 120.245 177.613 116.092 175.817C112.085 174.084 107.503 171.875 103.28 170.819C97.6706 169.417 95.0901 160.51 98.599 156.222C105.511 147.773 114.644 139.729 124.818 135.278C131.347 132.422 137.486 128.931 143.937 125.838C148.026 123.877 152.48 123.505 156.788 122.228C161.771 120.752 166.74 119.046 171.623 117.27C189.016 110.946 206.85 106.232 224.339 100.095C235.166 96.2961 247.042 94.574 257.46 89.782C264.389 86.5945 272.111 85.1253 279.434 82.9992C286.702 80.8892 293.222 77.9574 300.616 76.613C302.741 76.2267 308.854 78.136 309.541 80.5399C310.308 83.2241 309.828 85.29 309.223 88.3144C308.906 89.9035 308.152 91.6945 308.152 93.3122C308.152 95.8518 309.15 98.0904 308.708 100.69C307.487 107.862 308.005 115.333 307.28 122.585C306.178 133.601 303.973 144.871 302.084 155.786C298.363 177.281 294.329 198.303 288.558 219.37C285.361 231.036 277.414 241.72 266.742 247.056C258.367 251.243 246.891 252.838 238.539 247.889C230.847 243.331 222.993 234.852 218.191 227.382C216.2 224.285 215.789 224.602 213.034 226.509C209.741 228.789 206.474 231.051 203.158 233.332C193.947 239.664 187.329 254.728 174.083 250.943C167.246 248.99 163.84 247.525 162.659 239.52C161.151 229.302 164.178 219.416 167.101 209.81C168.526 205.131 170.78 198.238 174.281 194.737C179.363 189.655 184.379 184.64 189.473 179.545C202.89 166.128 217.585 152.47 233.74 142.418C240.607 138.145 247.118 133.348 253.731 128.694C256.52 126.731 261.744 122.079 261.744 118.341C261.744 115.316 245.307 123.347 243.497 124.251C234.336 128.832 224.753 134.85 216.446 140.832C209.129 146.1 201.136 150.242 193.876 155.548C187.296 160.356 180.354 165.372 172.655 168.122C164.845 170.911 158.803 176.595 151.791 180.101" stroke="black" stroke-width="2" stroke-linecap="round"/>
</svg>
