<svg width="406" height="345" viewBox="0 0 406 345" fill="none" xmlns="http://www.w3.org/2000/svg">
<path d="M21.4007 202.902C21.8411 204.111 22.4806 205.19 23.2686 206.116C23.3843 206.414 23.5047 206.723 23.6305 207.045C24.7975 210.03 26.5529 214.403 29.627 218.161C30.6204 219.375 30.9675 220.142 31.7246 221.816C32.1687 222.798 32.7537 224.091 33.6928 225.97C35.4089 229.402 37.7325 232.144 39.3397 234.009C39.5778 234.285 39.8015 234.543 40.0122 234.787C41.4561 236.456 42.2913 237.422 42.9658 238.48C50.3309 250.03 58.1457 260.74 66.219 271.504C80.0174 289.902 98.7518 308.668 118.818 321.243C131.493 329.186 146.343 331.064 159.658 331.507C165.503 331.701 171.408 331.62 176.918 331.544C177.742 331.532 178.558 331.521 179.364 331.511C185.696 331.431 191.419 331.415 196.63 331.808C199.327 332.011 202.145 332.253 205.057 332.504C221.901 333.954 241.89 335.675 259.925 331.576C266.222 330.145 271.604 327.379 275.813 325.191L276.244 324.967C280.562 322.722 283.693 321.095 287.071 320.129C288.533 319.712 290.101 319.299 291.749 318.864C300.582 316.536 311.714 313.601 321.042 306.173C330.321 298.785 337.413 289.401 343.588 281.23C344.568 279.933 345.525 278.666 346.464 277.443C348.484 274.813 350.679 272.077 352.953 269.243C359.361 261.257 366.391 252.494 371.861 243.147C380.314 228.702 384.23 213.198 387.273 198.555C393.266 169.715 399.483 139.107 391.482 107.103C383.817 76.4422 368.786 46.6216 341.422 26.7207L341.173 26.5395C330.303 18.6332 315.109 7.58176 295.856 11.2145C272.846 15.556 249.523 16.7805 225.361 18.0492C223.846 18.1287 222.328 18.2084 220.807 18.289C195.28 19.6423 168.876 21.2639 142.623 27.2206C119.467 32.4743 101.561 40.0908 81.9737 53.5289C78.8897 55.6446 75.7561 57.4537 72.2284 59.4903C70.3515 60.5739 68.3631 61.7219 66.2114 63.0146C60.4934 66.45 54.1372 70.6467 48.8837 76.2942C35.7527 90.41 22.4268 110.289 15.4116 128.792C6.19068 153.112 11.5354 174.649 18.5399 194.882C18.7231 196.3 19.1998 197.701 19.9882 198.992C20.4544 200.296 20.9265 201.6 21.4007 202.902Z" fill="white" stroke="black" stroke-width="21" stroke-linecap="round"/>
<path d="M129 252.546C131.072 250.474 133.434 248.405 135.313 246.173C136.69 244.539 137.41 242.509 138.901 240.939C140.533 239.221 142.414 237.625 144.175 236.037C147.165 233.342 149.807 230.312 152.842 227.645C156.293 224.612 159.396 221.418 162.096 217.685C164.578 214.254 167.948 211.49 170.664 208.215C174.31 203.819 177.843 199.456 181.663 195.216C186.443 189.91 190.063 183.805 195.192 178.766C200.382 173.667 204.69 167.815 209.485 162.375C217.22 153.599 226.61 146.247 234.15 137.318C237.283 133.608 239.46 129.381 242.914 125.927C245.94 122.9 248.416 119.575 251.776 116.868C258.185 111.706 264.516 105.397 269.775 99.0853C272.276 96.0838 274.382 92.9056 276.794 89.8506C278.871 87.2197 281.147 84.6091 282.872 81.7335" stroke="black" stroke-width="16" stroke-linecap="round"/>
<path d="M155.518 93.9035C147.198 93.6724 139.342 89 131 89C131.885 89.4425 133.07 92.0554 133.792 92.9841C135.632 95.3494 138.19 97.5362 140.16 99.9989C145.29 106.411 151.631 112.158 155.994 119.17C162.19 129.127 170.708 137.952 177.584 147.502C184.917 157.688 191.931 168.119 199.036 178.489C205.828 188.401 211.367 199.264 217.152 209.783C223.175 220.734 231.684 230.267 238.741 240.533C242.616 246.168 246.8 252.185 250.149 258.138C251.122 259.868 253.107 259.06 255.121 258.751C264.772 257.266 274.817 258.061 284.508 256.299C285.532 256.113 290.069 255.168 289.139 253.745C286.953 250.401 284.957 246.728 283.486 242.984C282.291 239.943 279.314 236.617 277.459 233.926C273.71 228.491 270.074 222.961 266.494 217.411C258.753 205.412 250.167 194.027 242.419 182.031C238.44 175.87 233.838 170.106 229.649 164.085C226.231 159.171 221.506 155.443 217.697 150.873C208.833 140.236 202.314 128.083 195.359 116.106C192.413 111.032 188.868 105.659 184.939 101.293C183.085 99.2329 181.418 97.5935 178.809 96.6618C175.925 95.6318 171.35 95.9346 168.321 95.6061C164.063 95.1444 159.729 94.0205 155.518 93.9035Z" fill="white" stroke="black" stroke-width="9" stroke-linecap="round"/>
</svg>
