<svg width="406" height="345" viewBox="0 0 406 345" fill="none" xmlns="http://www.w3.org/2000/svg">
<path d="M21.4007 202.902C21.8411 204.111 22.4806 205.19 23.2686 206.116C23.3843 206.414 23.5047 206.723 23.6305 207.045C24.7975 210.03 26.5529 214.403 29.627 218.161C30.6204 219.375 30.9675 220.142 31.7246 221.816C32.1687 222.798 32.7537 224.091 33.6928 225.97C35.4089 229.402 37.7325 232.144 39.3397 234.009C39.5778 234.285 39.8015 234.543 40.0122 234.787C41.4561 236.456 42.2913 237.422 42.9658 238.48C50.3309 250.03 58.1457 260.74 66.219 271.504C80.0174 289.902 98.7518 308.668 118.818 321.243C131.493 329.186 146.343 331.064 159.658 331.507C165.503 331.701 171.408 331.62 176.918 331.544C177.742 331.532 178.558 331.521 179.364 331.511C185.696 331.431 191.419 331.415 196.63 331.808C199.327 332.011 202.145 332.253 205.057 332.504C221.901 333.954 241.89 335.675 259.925 331.576C266.222 330.145 271.604 327.379 275.813 325.191L276.244 324.967C280.562 322.722 283.693 321.095 287.071 320.129C288.533 319.712 290.101 319.299 291.749 318.864C300.582 316.536 311.714 313.601 321.042 306.173C330.321 298.785 337.413 289.401 343.588 281.23C344.568 279.933 345.525 278.666 346.464 277.443C348.484 274.813 350.679 272.077 352.953 269.243C359.361 261.257 366.391 252.494 371.861 243.147C380.314 228.702 384.23 213.198 387.273 198.555C393.266 169.715 399.483 139.107 391.482 107.103C383.817 76.4422 368.786 46.6216 341.422 26.7207L341.173 26.5395C330.303 18.6332 315.109 7.58176 295.856 11.2145C272.846 15.556 249.523 16.7805 225.361 18.0492C223.846 18.1287 222.328 18.2084 220.807 18.289C195.28 19.6423 168.876 21.2639 142.623 27.2206C119.467 32.4743 101.561 40.0908 81.9737 53.5289C78.8897 55.6446 75.7561 57.4537 72.2284 59.4903C70.3515 60.5739 68.3631 61.7219 66.2114 63.0146C60.4934 66.45 54.1372 70.6467 48.8837 76.2942C35.7527 90.41 22.4268 110.289 15.4116 128.792C6.19068 153.112 11.5354 174.649 18.5399 194.882C18.7231 196.3 19.1998 197.701 19.9882 198.992C20.4544 200.296 20.9265 201.6 21.4007 202.902Z" fill="white" stroke="black" stroke-width="21" stroke-linecap="round"/>
<path d="M150.077 138.967C150.077 136.384 151.134 131.048 150.077 128.674C152.393 129.444 154.278 131.818 156.504 132.986C160.34 135.001 163.994 137.916 167.498 140.505C170.083 142.416 172.65 144.381 175.278 146.205C177.009 147.406 179.273 149.437 181.461 149.598C183.689 149.763 185.429 149.758 187.7 149.111C190.446 148.328 193.783 147.613 196.269 146.223C198.977 144.711 203.129 143.333 204.689 140.505C205.666 138.732 206.791 137.043 205.215 135.424C203.409 133.569 201.067 131.928 198.788 130.699C196.293 129.354 194.116 127.307 191.684 125.824C186.215 122.49 180.16 120.161 175.109 116.112C172.527 114.042 169.899 112.464 167.178 110.637C165.29 109.37 163.784 107.69 161.916 106.4C160.463 105.396 158.868 104.629 157.368 103.7C155.012 102.241 153.242 101 150.415 101C147.936 101 145.646 101.853 143.274 102.519C137.014 104.275 130.439 106.897 126.322 112.137C124.444 114.528 122 118.128 122 121.324C122 125.634 122.498 130.123 122.695 134.449C123.114 143.636 124.03 152.792 124.03 162.01C124.03 164.941 124.282 166.835 125.308 169.51C126.353 172.238 126.266 172.121 128.803 171.891C132.003 171.601 135.423 170.962 138.387 169.66C141.323 168.372 143.23 165.594 145.266 163.248C148.988 158.956 149.738 153.898 149.738 148.23C149.738 145.129 150.077 142.033 150.077 138.967Z" fill="black" stroke="black" stroke-width="7" stroke-linecap="round"/>
<path d="M264.748 208.819C266.907 210.231 271.944 212.263 273.351 214.442C273.972 212.088 273.017 209.218 273.254 206.721C273.664 202.417 273.222 197.774 272.97 193.434C272.784 190.232 272.542 187.015 272.451 183.825C272.392 181.723 271.93 178.724 272.989 176.809C274.067 174.858 275.021 173.408 276.801 171.866C278.954 170.001 281.373 167.605 283.891 166.288C286.633 164.854 290.05 162.14 293.265 162.383C295.28 162.536 297.306 162.519 297.799 164.72C298.364 167.24 298.457 170.092 298.241 172.667C298.004 175.485 298.527 178.421 298.439 181.261C298.241 187.649 296.883 193.976 297.511 200.406C297.832 203.692 297.718 206.748 297.759 210.018C297.788 212.287 298.37 214.461 298.429 216.726C298.475 218.488 298.246 220.238 298.204 221.998C298.138 224.762 298.209 226.918 296.666 229.278C295.314 231.348 293.351 232.794 291.5 234.411C286.616 238.678 280.837 242.735 274.21 243.309C271.187 243.571 266.844 243.645 264.173 241.899C260.571 239.545 257.091 236.677 253.583 234.149C246.132 228.78 238.979 223.014 231.274 217.978C228.825 216.377 227.38 215.131 225.703 212.814C223.994 210.451 224.044 210.587 225.62 208.594C227.609 206.082 230.01 203.576 232.716 201.811C235.395 200.064 238.757 199.989 241.829 199.572C247.447 198.808 252.084 200.945 256.822 204.042C259.414 205.736 262.185 207.144 264.748 208.819Z" fill="black" stroke="black" stroke-width="7" stroke-linecap="round"/>
<path d="M173.597 248.763C173.045 249.035 171.204 249.45 171 250.06C171 253.322 174.968 256.027 177.493 257.517C181.684 259.991 186.182 261.857 190.49 264.122C193.07 265.478 195.442 267.221 197.837 268.866C200.146 270.451 202.43 272.497 205.003 273.621C209.523 275.596 214.649 275.433 219.047 273.237C221.625 271.949 224.371 271.056 226.958 269.778C229.872 268.339 233.036 267.178 236.086 266.059L236.096 266.056C238.968 265.002 241.557 263.523 244.369 262.381C247.036 261.298 249.59 260.511 251.992 258.874C254.379 257.247 257.707 254.165 254.974 251.357C252.738 249.06 250.101 246.44 247.074 245.208C243.892 243.914 240.432 243.043 237.419 241.402C234.933 240.047 231.376 239.684 228.582 239.684C226.691 239.684 225.176 239.771 223.387 240.441C222.676 240.707 221.892 240.762 221.211 241.101C220.298 241.557 219.506 242.232 218.602 242.711C216.771 243.679 215.403 245.015 213.299 245.304C211.435 245.561 209.871 245.619 208.274 244.44C206.752 243.317 205.05 242.418 203.632 241.149C201.06 238.848 197.531 238.482 194.374 239.636C192.587 240.29 190.925 240.408 189.228 241.366C187.714 242.22 185.985 242.804 184.418 243.575C182.062 244.735 179.634 245.733 177.324 246.986C176.118 247.64 174.83 248.156 173.597 248.763Z" fill="black" stroke="black" stroke-width="5" stroke-linecap="round"/>
<path d="M171.964 98.8811C171.334 98.5714 169.232 98.0986 169 97.404C169 93.6886 173.529 90.6076 176.409 88.9108C181.193 86.0935 186.325 83.968 191.242 81.3886C194.185 79.8446 196.893 77.8592 199.626 75.9864C202.26 74.1809 204.867 71.8509 207.803 70.5704C212.962 68.3209 218.811 68.5067 223.83 71.0081C226.772 72.4743 229.906 73.4916 232.858 74.9469C236.184 76.586 239.794 77.9079 243.275 79.1823L243.286 79.1867C246.563 80.3865 249.518 82.0713 252.727 83.3718C255.771 84.6056 258.685 85.5009 261.426 87.3653C264.15 89.2189 267.948 92.729 264.829 95.9269C262.277 98.5428 259.268 101.526 255.814 102.929C252.183 104.404 248.234 105.395 244.796 107.265C241.959 108.807 237.9 109.221 234.711 109.221C232.554 109.221 230.824 109.122 228.783 108.359C227.971 108.055 227.076 107.994 226.3 107.607C225.258 107.087 224.354 106.319 223.322 105.774C221.233 104.672 219.672 103.15 217.271 102.82C215.143 102.527 213.359 102.461 211.536 103.805C209.8 105.084 207.857 106.108 206.239 107.552C203.304 110.173 199.277 110.59 195.674 109.275C193.635 108.531 191.737 108.397 189.801 107.306C188.074 106.333 186.1 105.668 184.313 104.789C181.623 103.468 178.853 102.332 176.217 100.905C174.84 100.16 173.37 99.5725 171.964 98.8811Z" fill="black" stroke="black" stroke-width="5" stroke-linecap="round"/>
<path d="M272.946 107.555C263.644 110.796 245.887 120.295 247.5 120.295C248.763 120.924 247.553 120.89 248.897 121.523C250.458 122.26 252.307 122.397 253.965 122.785C255.808 123.217 257.609 123.506 259.455 124.046C261.647 124.688 264.274 127.081 266.189 128.391C273.785 133.591 250.995 143.864 248.474 144.555C240.344 146.784 232.252 149.524 224.402 152.544C219.611 154.387 215.1 155.406 210.653 158.15C207.078 160.356 203.2 162.093 199.672 164.34C195.956 166.708 191.826 168.667 187.636 170.017C183.368 171.391 179.423 173.802 175.412 175.763C167.647 179.558 159.247 182.318 151.152 185.317C143.413 188.184 135.51 192.27 129.613 198.141C126.696 201.045 126 206.589 126 210.474C126 214.074 126.639 218.409 127.783 221.827C128.48 223.908 129.566 225.694 130.317 227.713C130.83 229.093 132.244 229.912 132.968 231.194C134.286 233.525 137.182 236.519 139.327 238.085C140.858 239.203 143.12 240 145.005 240C149.362 240 152.781 237.646 156.924 236.73C161.445 235.73 165.396 232.593 169.265 230.143C170.827 229.153 172.586 228.097 173.91 226.779C175.219 225.476 174.558 225.097 172.784 224.35C170.783 223.507 168.845 221.489 167.059 220.238C165.599 219.215 164.226 218.733 163.681 216.968C162.585 213.423 168.392 213.06 170.79 212.016C175.209 210.091 179.491 208.042 183.882 206.13C186.772 204.871 189.483 203.353 192.305 201.948C194.635 200.789 197.347 199.737 199.485 198.281C202.485 196.237 206.339 195.339 209.62 193.749C212.637 192.288 215.876 191.354 218.912 189.965C224.461 187.427 230.155 185.39 235.382 182.21C241.097 178.733 246.937 174.907 252.932 171.979C259.106 168.963 265.477 166.486 271.726 163.686C276.174 161.693 280.416 160.127 284.395 157.403C287.918 154.992 291.968 153.158 295.024 150.115C295.854 149.289 298.653 148.889 298.731 147.499C298.805 146.165 299.153 144.804 299.153 143.621C299.153 138.365 299.536 132.952 299.975 127.714C300.2 125.018 298.831 121.816 299.599 119.141C299.932 117.98 296.609 116.25 295.798 115.544C293.677 113.696 290.919 112.799 288.595 111.129C286.274 109.459 283.88 107.867 281.51 106.293C280.078 105.343 279.863 104.868 278.459 105.032C276.712 105.237 274.639 106.965 272.946 107.555Z" fill="black" stroke="black" stroke-width="5" stroke-linecap="round"/>
</svg>
